<svg width="431" height="457" viewBox="0 0 431 457" fill="none" xmlns="http://www.w3.org/2000/svg">
<path d="M354.806 55.588L170.615 123.629L28.5781 249.618L184.195 187.858L354.806 55.588Z" fill="#014E80"/>
<path d="M62.0547 186.188L279.322 221.842L430.291 174.896L212.987 139.241L62.0547 186.188Z" fill="#0070BA"/>
<path d="M212.984 373.719L430.288 409.373V174.932L212.984 139.277V373.719Z" fill="#035B95"/>
<path d="M279.32 456.321L430.289 409.374V174.897L279.32 221.879V456.321Z" fill="#0766A5"/>
<path d="M62.0547 420.629L279.322 456.284V221.842L62.0547 186.188L62.0547 420.629Z" fill="#007BCC"/>
<path d="M133.977 59.0735L0 199.259L28.5745 249.618L170.612 123.629L133.977 59.0735Z" fill="#09598E"/>
<path d="M323.287 0.00012207L133.977 59.0734L170.611 123.629L354.802 55.5878L323.287 0.00012207Z" fill="#0070BA"/>
</svg>
